<svg width="350" height="87" viewBox="0 0 350 87" fill="none" xmlns="http://www.w3.org/2000/svg">
<g clip-path="url(#clip0_88_5)">
<path d="M53.876 7H47.1664C46.1611 7 45.3462 7.809 45.3462 8.80696V15.3835C45.3462 16.3814 46.1611 17.1904 47.1664 17.1904H53.876C54.8813 17.1904 55.6962 16.3814 55.6962 15.3835V8.80696C55.6962 7.809 54.8813 7 53.876 7Z" fill="white"/>
<path d="M74.6185 17.1887L72.598 15.183C71.4408 14.0343 69.5646 14.0343 68.4074 15.183L66.1475 17.4265C64.9902 18.5752 64.9902 20.4377 66.1474 21.5865L68.1679 23.5922C69.3251 24.7409 71.2013 24.7409 72.3585 23.5922L74.6185 21.3487C75.7757 20.2 75.7757 18.3375 74.6185 17.1887Z" fill="white"/>
<path d="M50.6586 15.5095H50.1718C49.7042 15.5095 49.3252 15.8858 49.3252 16.35V20.09C49.3252 20.5541 49.7042 20.9304 50.1718 20.9304H50.6586C51.1262 20.9304 51.5053 20.5541 51.5053 20.09V16.35C51.5053 15.8858 51.1262 15.5095 50.6586 15.5095Z" fill="white"/>
<path d="M18 35.5962V42.2568C18 43.2547 18.815 44.0637 19.8203 44.0637H26.4875C27.4928 44.0637 28.3077 43.2547 28.3077 42.2568V35.5962C28.3077 34.5983 27.4928 33.7893 26.4875 33.7893H19.8203C18.815 33.7893 18 34.5983 18 35.5962Z" fill="white"/>
<path d="M26.7627 38.7688V39.2521C26.7627 39.7162 27.1417 40.0925 27.6093 40.0925H31.3768C31.8444 40.0925 32.2235 39.7162 32.2235 39.2521V38.7688C32.2235 38.3047 31.8444 37.9284 31.3768 37.9284H27.6093C27.1417 37.9284 26.7627 38.3047 26.7627 38.7688Z" fill="white"/>
<path d="M82.9788 41.8576V35.1971C82.9788 34.1991 82.1638 33.3901 81.1585 33.3901H74.4913C73.486 33.3901 72.671 34.1991 72.671 35.1971V41.8576C72.671 42.8556 73.486 43.6646 74.4913 43.6646H81.1585C82.1638 43.6646 82.9788 42.8556 82.9788 41.8576Z" fill="white"/>
<path d="M74.2163 38.6638V38.1805C74.2163 37.7164 73.8373 37.3401 73.3697 37.3401H69.6022C69.1346 37.3401 68.7555 37.7164 68.7555 38.1805V38.6638C68.7555 39.128 69.1346 39.5042 69.6022 39.5042H73.3697C73.8373 39.5042 74.2163 39.128 74.2163 38.6638Z" fill="white"/>
<path d="M47.103 71H53.8126C54.8179 71 55.6328 70.191 55.6328 69.193V62.5745C55.6328 61.5766 54.8179 60.7676 53.8126 60.7676H47.103C46.0977 60.7676 45.2828 61.5766 45.2828 62.5745V69.193C45.2828 70.191 46.0977 71 47.103 71Z" fill="white"/>
<path d="M50.2989 62.2803H50.7857C51.2533 62.2803 51.6323 61.904 51.6323 61.4398V57.6998C51.6323 57.2357 51.2533 56.8594 50.7857 56.8594H50.2989C49.8313 56.8594 49.4523 57.2357 49.4523 57.6998V61.4398C49.4523 61.904 49.8313 62.2803 50.2989 62.2803Z" fill="white"/>
<path d="M67.8755 22.1792L67.5313 21.8374C67.2006 21.5092 66.6646 21.5092 66.334 21.8374L63.6699 24.482C63.3393 24.8102 63.3393 25.3424 63.6699 25.6706L64.0142 26.0123C64.3448 26.3405 64.8808 26.3405 65.2115 26.0123L67.8755 23.3677C68.2061 23.0395 68.2061 22.5074 67.8755 22.1792Z" fill="white"/>
<path d="M27.0822 60.2761L29.1027 62.2818C30.2599 63.4306 32.1361 63.4306 33.2933 62.2818L35.5532 60.0384C36.7104 58.8896 36.7104 57.0271 35.5532 55.8784L33.5328 53.8727C32.3756 52.7239 30.4994 52.7239 29.3422 53.8727L27.0822 56.1161C25.925 57.2649 25.925 59.1274 27.0822 60.2761Z" fill="white"/>
<path d="M33.8179 55.3106L34.1621 55.6523C34.4927 55.9805 35.0288 55.9805 35.3594 55.6523L38.0234 53.0077C38.3541 52.6795 38.3541 52.1474 38.0234 51.8192L37.6792 51.4774C37.3486 51.1492 36.8125 51.1492 36.4819 51.4774L33.8179 54.122C33.4872 54.4502 33.4872 54.9824 33.8179 55.3106Z" fill="white"/>
<path d="M72.0788 62.419L74.0993 60.4133C75.2565 59.2645 75.2565 57.402 74.0993 56.2533L71.8393 54.0098C70.6821 52.8611 68.8059 52.8611 67.6487 54.0098L65.6283 56.0155C64.4711 57.1643 64.4711 59.0268 65.6283 60.1755L67.8882 62.419C69.0454 63.5677 70.9216 63.5677 72.0788 62.419Z" fill="white"/>
<path d="M67.0742 55.7524L67.4184 55.4107C67.7491 55.0825 67.7491 54.5503 67.4184 54.2221L64.7544 51.5776C64.4238 51.2493 63.8877 51.2493 63.5571 51.5776L63.2129 51.9193C62.8822 52.2475 62.8822 52.7796 63.2129 53.1078L65.8769 55.7524C66.2075 56.0806 66.7436 56.0806 67.0742 55.7524Z" fill="white"/>
<path d="M29.025 16.0945L27.0045 18.1002C25.8473 19.2489 25.8473 21.1114 27.0045 22.2602L29.2644 24.5036C30.4216 25.6524 32.2978 25.6524 33.455 24.5036L35.4755 22.4979C36.6327 21.3491 36.6327 19.4866 35.4755 18.3379L33.2156 16.0945C32.0584 14.9457 30.1822 14.9457 29.025 16.0945Z" fill="white"/>
<path d="M34.0283 22.7871L33.6841 23.1289C33.3535 23.4571 33.3535 23.9892 33.6841 24.3174L36.3481 26.962C36.6788 27.2902 37.2148 27.2902 37.5454 26.962L37.8897 26.6203C38.2203 26.2921 38.2203 25.7599 37.8897 25.4317L35.2257 22.7871C34.895 22.4589 34.359 22.4589 34.0283 22.7871Z" fill="white"/>
<path d="M50.3623 32.4023H48.5632V38.0543H51.6111C53.0504 37.9913 54.151 36.7517 54.0875 35.2809C54.151 33.726 53.0292 32.4654 51.5899 32.4023H50.3623Z" fill="white"/>
<path d="M54.2146 40.3237H51.6747H48.5845V45.9757H50.3836H54.2781C55.6538 45.9127 56.7756 44.673 56.7121 43.2023C56.7756 41.6474 55.6538 40.3868 54.2146 40.3237Z" fill="white"/>
<path d="M50.6799 23.0945C41.6421 23.0945 34.2976 30.3643 34.2976 39.3571C34.2976 48.3499 41.621 55.6198 50.6799 55.6198C59.7388 55.6198 67.0622 48.3499 67.0622 39.3571C67.0622 30.3643 59.7388 23.0945 50.6799 23.0945ZM54.3204 48.2448H51.5265V49.7577C51.5265 50.388 51.0185 50.8923 50.3836 50.8923C49.7486 50.8923 49.2406 50.388 49.2406 49.7577V48.2448H47.4415H45.6213C44.9863 48.2448 44.4783 47.7406 44.4783 47.1102C44.4783 46.4799 44.9863 45.9756 45.6213 45.9756H46.2986V32.4024H45.6213C44.9863 32.4024 44.4783 31.8982 44.4783 31.2678C44.4783 30.6375 44.9863 30.1332 45.6213 30.1332H47.4415H49.2406V28.6204C49.2406 27.9901 49.7486 27.4858 50.3836 27.4858C51.0185 27.4858 51.5265 27.9901 51.5265 28.6204V30.1332H51.6747C54.4051 30.2593 56.5005 32.5495 56.3946 35.2599C56.437 36.3525 56.0983 37.4031 55.4845 38.2435C57.6011 38.8739 59.0827 40.8699 58.998 43.1812C59.1039 45.8075 57.0085 48.0978 54.3416 48.2238L54.3204 48.2448Z" fill="white"/>
</g>
<path d="M113.234 24.484H110.66C110.154 22.768 108.724 21.822 106.942 21.822C104.214 21.822 102.586 24 102.586 27.542C102.586 31.084 104.192 33.218 106.942 33.218C108.658 33.218 110.044 32.338 110.616 30.644H113.212C112.398 33.614 109.89 35.286 106.942 35.286C102.674 35.286 100.078 32.36 100.078 27.542C100.078 22.746 102.696 19.754 107.008 19.754C109.978 19.754 112.53 21.382 113.234 24.484ZM115.512 35V23.274H117.866V25.012C118.636 23.604 119.846 22.966 121.21 22.966C121.672 22.966 122.112 23.076 122.332 23.274V25.342C121.98 25.232 121.562 25.188 121.078 25.188C118.834 25.188 117.866 26.552 117.866 28.598V35H115.512ZM124.77 40.126C124.264 40.126 123.736 39.994 123.472 39.906V38.102H124.11C125.452 38.102 125.958 37.838 126.97 35.396L127.322 34.582L122.614 23.274H125.144L128.048 30.578L128.554 32.184L129.06 30.578L131.876 23.274H134.274L128.95 36.364C127.762 39.29 126.86 40.126 124.77 40.126ZM138.169 39.84H135.815V23.274H138.169V24.682C138.917 23.582 140.017 22.966 141.359 22.966C144.461 22.966 146.331 25.276 146.331 29.104C146.331 33.086 144.417 35.286 141.359 35.286C140.017 35.286 138.917 34.736 138.169 33.658V39.84ZM141.073 24.946C139.181 24.946 138.169 26.42 138.169 29.104C138.169 31.788 139.225 33.306 141.073 33.306C142.921 33.306 143.933 31.81 143.933 29.104C143.933 26.442 142.877 24.946 141.073 24.946ZM148.927 31.502V25.1H147.343V23.274H148.927V20.568H151.281V23.274H153.811V25.1H151.281V31.37C151.281 32.712 151.655 33.35 153.305 33.35H153.767V35.066C153.503 35.198 152.953 35.286 152.293 35.286C150.005 35.286 148.927 34.032 148.927 31.502ZM160.486 35.286C157.076 35.286 155.008 32.976 155.008 29.148C155.008 25.166 157.142 22.966 160.486 22.966C163.896 22.966 165.964 25.32 165.964 29.148C165.964 33.108 163.83 35.286 160.486 35.286ZM160.486 33.306C162.488 33.306 163.566 31.854 163.566 29.148C163.566 26.464 162.466 24.946 160.486 24.946C158.506 24.946 157.406 26.42 157.406 29.148C157.406 31.81 158.506 33.306 160.486 33.306ZM182.667 35L181.391 31.634H174.571L173.295 35H170.831L176.595 20.04H179.477L185.241 35H182.667ZM177.541 23.868L175.319 29.698H180.643L178.421 23.868L177.981 22.416L177.541 23.868ZM188.603 26.354C188.603 29.346 196.105 26.838 196.105 31.612C196.105 33.834 194.103 35.286 191.265 35.286C188.427 35.286 186.425 33.966 185.985 31.172H188.339C188.581 32.646 189.681 33.46 191.331 33.46C192.915 33.46 193.751 32.756 193.751 31.766C193.751 28.84 186.359 31.304 186.359 26.486C186.359 24.66 187.789 22.966 190.759 22.966C193.377 22.966 195.313 24.176 195.687 27.102H193.333C193.069 25.452 192.145 24.836 190.649 24.836C189.351 24.836 188.603 25.474 188.603 26.354ZM200.118 26.354C200.118 29.346 207.62 26.838 207.62 31.612C207.62 33.834 205.618 35.286 202.78 35.286C199.942 35.286 197.94 33.966 197.5 31.172H199.854C200.096 32.646 201.196 33.46 202.846 33.46C204.43 33.46 205.266 32.756 205.266 31.766C205.266 28.84 197.874 31.304 197.874 26.486C197.874 24.66 199.304 22.966 202.274 22.966C204.892 22.966 206.828 24.176 207.202 27.102H204.848C204.584 25.452 203.66 24.836 202.164 24.836C200.866 24.836 200.118 25.474 200.118 26.354ZM220.17 31.172C219.532 33.9 217.508 35.286 214.758 35.286C211.304 35.286 209.192 32.976 209.192 29.148C209.192 25.166 211.304 22.966 214.648 22.966C218.036 22.966 220.082 25.254 220.082 29.016V29.588H211.59C211.722 31.986 212.844 33.328 214.758 33.328C216.254 33.328 217.31 32.624 217.706 31.172H220.17ZM214.648 24.924C212.954 24.924 211.942 26.002 211.656 27.982H217.64C217.354 26.002 216.32 24.924 214.648 24.924ZM222.748 31.502V25.1H221.164V23.274H222.748V20.568H225.102V23.274H227.632V25.1H225.102V31.37C225.102 32.712 225.476 33.35 227.126 33.35H227.588V35.066C227.324 35.198 226.774 35.286 226.114 35.286C223.826 35.286 222.748 34.032 222.748 31.502ZM113.938 64L110.924 53.66L110.572 52.34L110.242 53.66L107.228 64H104.39L99.726 49.04H102.344L105.556 60.194L105.908 61.492L106.216 60.194L109.428 49.04H111.87L115.082 60.194L115.412 61.492L115.72 60.194L118.91 49.04H121.418L116.754 64H113.938ZM133.029 60.172C132.391 62.9 130.367 64.286 127.617 64.286C124.163 64.286 122.051 61.976 122.051 58.148C122.051 54.166 124.163 51.966 127.507 51.966C130.895 51.966 132.941 54.254 132.941 58.016V58.588H124.449C124.581 60.986 125.703 62.328 127.617 62.328C129.113 62.328 130.169 61.624 130.565 60.172H133.029ZM127.507 53.924C125.813 53.924 124.801 55.002 124.515 56.982H130.499C130.213 55.002 129.179 53.924 127.507 53.924ZM137.521 56.102H135.167C135.541 53.506 137.323 51.966 140.249 51.966C143.439 51.966 145.023 53.836 145.023 56.564V61.14C145.023 62.548 145.155 63.362 145.419 64H142.955C142.779 63.56 142.713 62.944 142.691 62.284C141.701 63.67 140.183 64.286 138.775 64.286C136.399 64.286 134.771 63.164 134.771 60.92C134.771 59.314 135.651 58.126 137.411 57.532C138.973 57.004 140.557 56.872 142.669 56.85V56.586C142.669 54.87 141.877 53.946 140.073 53.946C138.555 53.946 137.741 54.782 137.521 56.102ZM137.147 60.832C137.147 61.822 137.961 62.438 139.215 62.438C141.173 62.438 142.669 60.876 142.669 58.984V58.456C138.159 58.5 137.147 59.49 137.147 60.832ZM147.975 64V48.16H150.329V64H147.975ZM153.482 60.502V54.1H151.898V52.274H153.482V49.568H155.836V52.274H158.366V54.1H155.836V60.37C155.836 61.712 156.21 62.35 157.86 62.35H158.322V64.066C158.058 64.198 157.508 64.286 156.848 64.286C154.56 64.286 153.482 63.032 153.482 60.502ZM160.135 64V48.16H162.489V53.836C163.281 52.582 164.513 51.966 166.031 51.966C168.473 51.966 169.991 53.396 169.991 56.168V64H167.659V56.652C167.659 54.958 166.911 53.924 165.305 53.924C163.545 53.924 162.489 55.486 162.489 57.114V64H160.135ZM177.348 64V49.04H180.67L184.894 59.402L185.4 60.986L185.906 59.402L190.086 49.04H193.32V64H190.856L190.922 51.878L189.844 55.09L186.214 64H184.454L180.802 55.068L179.746 51.944L179.812 64H177.348ZM198.58 56.102H196.226C196.6 53.506 198.382 51.966 201.308 51.966C204.498 51.966 206.082 53.836 206.082 56.564V61.14C206.082 62.548 206.214 63.362 206.478 64H204.014C203.838 63.56 203.772 62.944 203.75 62.284C202.76 63.67 201.242 64.286 199.834 64.286C197.458 64.286 195.83 63.164 195.83 60.92C195.83 59.314 196.71 58.126 198.47 57.532C200.032 57.004 201.616 56.872 203.728 56.85V56.586C203.728 54.87 202.936 53.946 201.132 53.946C199.614 53.946 198.8 54.782 198.58 56.102ZM198.206 60.832C198.206 61.822 199.02 62.438 200.274 62.438C202.232 62.438 203.728 60.876 203.728 58.984V58.456C199.218 58.5 198.206 59.49 198.206 60.832ZM209.034 64V52.274H211.388V53.836C212.18 52.582 213.412 51.966 214.93 51.966C217.372 51.966 218.89 53.396 218.89 56.168V64H216.558V56.652C216.558 54.958 215.81 53.924 214.204 53.924C212.444 53.924 211.388 55.486 211.388 57.114V64H209.034ZM223.974 56.102H221.62C221.994 53.506 223.776 51.966 226.702 51.966C229.892 51.966 231.476 53.836 231.476 56.564V61.14C231.476 62.548 231.608 63.362 231.872 64H229.408C229.232 63.56 229.166 62.944 229.144 62.284C228.154 63.67 226.636 64.286 225.228 64.286C222.852 64.286 221.224 63.164 221.224 60.92C221.224 59.314 222.104 58.126 223.864 57.532C225.426 57.004 227.01 56.872 229.122 56.85V56.586C229.122 54.87 228.33 53.946 226.526 53.946C225.008 53.946 224.194 54.782 223.974 56.102ZM223.6 60.832C223.6 61.822 224.414 62.438 225.668 62.438C227.626 62.438 229.122 60.876 229.122 58.984V58.456C224.612 58.5 223.6 59.49 223.6 60.832ZM238.652 64.066C235.66 64.066 233.856 61.778 233.856 58.038C233.856 54.122 235.704 51.966 238.652 51.966C240.148 51.966 241.27 52.494 242.018 53.506V52.274H244.372V64.374C244.372 67.586 242.238 69.148 239.422 69.148C236.606 69.148 234.582 67.828 234.164 65.1H236.518C236.738 66.508 237.86 67.256 239.4 67.256C240.962 67.256 242.018 66.442 242.018 64.418V62.438C241.226 63.516 240.082 64.066 238.652 64.066ZM239.136 62.086C241.006 62.086 242.018 60.656 242.018 58.016C242.018 55.442 240.962 53.946 239.136 53.946C237.266 53.946 236.254 55.376 236.254 58.038C236.254 60.612 237.288 62.086 239.136 62.086ZM257.639 60.172C257.001 62.9 254.977 64.286 252.227 64.286C248.773 64.286 246.661 61.976 246.661 58.148C246.661 54.166 248.773 51.966 252.117 51.966C255.505 51.966 257.551 54.254 257.551 58.016V58.588H249.059C249.191 60.986 250.313 62.328 252.227 62.328C253.723 62.328 254.779 61.624 255.175 60.172H257.639ZM252.117 53.924C250.423 53.924 249.411 55.002 249.125 56.982H255.109C254.823 55.002 253.789 53.924 252.117 53.924ZM259.909 64V52.274H262.263V53.77C263.011 52.56 264.177 51.966 265.563 51.966C267.125 51.966 268.291 52.648 268.863 53.99C269.633 52.648 270.909 51.966 272.449 51.966C274.759 51.966 276.255 53.396 276.255 56.168V64H273.901V56.652C273.901 54.958 273.263 53.924 271.811 53.924C270.227 53.924 269.259 55.486 269.259 57.114V64H266.905V56.652C266.905 54.958 266.245 53.924 264.815 53.924C263.231 53.924 262.263 55.486 262.263 57.114V64H259.909ZM289.522 60.172C288.884 62.9 286.86 64.286 284.11 64.286C280.656 64.286 278.544 61.976 278.544 58.148C278.544 54.166 280.656 51.966 284 51.966C287.388 51.966 289.434 54.254 289.434 58.016V58.588H280.942C281.074 60.986 282.196 62.328 284.11 62.328C285.606 62.328 286.662 61.624 287.058 60.172H289.522ZM284 53.924C282.306 53.924 281.294 55.002 281.008 56.982H286.992C286.706 55.002 285.672 53.924 284 53.924ZM291.791 64V52.274H294.145V53.836C294.937 52.582 296.169 51.966 297.687 51.966C300.129 51.966 301.647 53.396 301.647 56.168V64H299.315V56.652C299.315 54.958 298.567 53.924 296.961 53.924C295.201 53.924 294.145 55.486 294.145 57.114V64H291.791ZM304.818 60.502V54.1H303.234V52.274H304.818V49.568H307.172V52.274H309.702V54.1H307.172V60.37C307.172 61.712 307.546 62.35 309.196 62.35H309.658V64.066C309.394 64.198 308.844 64.286 308.184 64.286C305.896 64.286 304.818 63.032 304.818 60.502Z" fill="white"/>
<defs>
<clipPath id="clip0_88_5">
<rect width="65" height="64" fill="white" transform="translate(18 7)"/>
</clipPath>
</defs>
</svg>
