<svg width="181" height="45" viewBox="0 0 181 45" fill="none" xmlns="http://www.w3.org/2000/svg">
<g clip-path="url(#clip0_29_11)">
<path d="M24.95 7H21.78C21.3051 7 20.92 7.38504 20.92 7.86V10.99C20.92 11.465 21.3051 11.85 21.78 11.85H24.95C25.425 11.85 25.81 11.465 25.81 10.99V7.86C25.81 7.38504 25.425 7 24.95 7Z" fill="#015CF3"/>
<path d="M34.7501 11.8492L33.7955 10.8946C33.2488 10.3479 32.3623 10.3479 31.8156 10.8946L30.7479 11.9623C30.2011 12.5091 30.2011 13.3955 30.7479 13.9422L31.7025 14.8968C32.2492 15.4436 33.1356 15.4436 33.6824 14.8968L34.7501 13.8291C35.2968 13.2824 35.2968 12.3959 34.7501 11.8492Z" fill="#015CF3"/>
<path d="M23.43 11.05H23.2C22.9791 11.05 22.8 11.2291 22.8 11.45V13.23C22.8 13.4509 22.9791 13.63 23.2 13.63H23.43C23.651 13.63 23.83 13.4509 23.83 13.23V11.45C23.83 11.2291 23.651 11.05 23.43 11.05Z" fill="#015CF3"/>
<path d="M8 20.61V23.78C8 24.255 8.38503 24.64 8.86 24.64H12.01C12.485 24.64 12.87 24.255 12.87 23.78V20.61C12.87 20.135 12.485 19.75 12.01 19.75H8.86C8.38503 19.75 8 20.135 8 20.61Z" fill="#015CF3"/>
<path d="M12.14 22.12V22.35C12.14 22.5709 12.3191 22.75 12.54 22.75H14.32C14.5409 22.75 14.72 22.5709 14.72 22.35V22.12C14.72 21.8991 14.5409 21.72 14.32 21.72H12.54C12.3191 21.72 12.14 21.8991 12.14 22.12Z" fill="#015CF3"/>
<path d="M38.7 23.59V20.42C38.7 19.945 38.3149 19.56 37.84 19.56H34.69C34.215 19.56 33.83 19.945 33.83 20.42V23.59C33.83 24.065 34.215 24.45 34.69 24.45H37.84C38.3149 24.45 38.7 24.065 38.7 23.59Z" fill="#015CF3"/>
<path d="M34.5601 22.07V21.84C34.5601 21.6191 34.381 21.44 34.1601 21.44H32.3801C32.1591 21.44 31.9801 21.6191 31.9801 21.84V22.07C31.9801 22.2909 32.1591 22.47 32.3801 22.47H34.1601C34.381 22.47 34.5601 22.2909 34.5601 22.07Z" fill="#015CF3"/>
<path d="M21.75 37.46H24.92C25.395 37.46 25.78 37.075 25.78 36.6V33.45C25.78 32.9751 25.395 32.59 24.92 32.59H21.75C21.2751 32.59 20.89 32.9751 20.89 33.45V36.6C20.89 37.075 21.2751 37.46 21.75 37.46Z" fill="#015CF3"/>
<path d="M23.26 33.31H23.49C23.7109 33.31 23.89 33.1309 23.89 32.91V31.13C23.89 30.9091 23.7109 30.73 23.49 30.73H23.26C23.0391 30.73 22.86 30.9091 22.86 31.13V32.91C22.86 33.1309 23.0391 33.31 23.26 33.31Z" fill="#015CF3"/>
<path d="M31.5643 14.2243L31.4016 14.0617C31.2454 13.9054 30.9921 13.9054 30.8359 14.0617L29.5773 15.3203C29.4211 15.4765 29.4211 15.7298 29.5773 15.886L29.7399 16.0486C29.8961 16.2048 30.1494 16.2048 30.3056 16.0486L31.5643 14.79C31.7205 14.6338 31.7205 14.3805 31.5643 14.2243Z" fill="#015CF3"/>
<path d="M12.2909 32.3561L13.2455 33.3107C13.7923 33.8574 14.6787 33.8574 15.2254 33.3107L16.2932 32.243C16.8399 31.6962 16.8399 30.8098 16.2932 30.2631L15.3386 29.3085C14.7918 28.7618 13.9054 28.7618 13.3587 29.3085L12.2909 30.3762C11.7442 30.923 11.7442 31.8094 12.2909 32.3561Z" fill="#015CF3"/>
<path d="M15.4732 29.9928L15.6359 30.1554C15.7921 30.3116 16.0453 30.3116 16.2015 30.1554L17.4602 28.8967C17.6164 28.7405 17.6164 28.4873 17.4602 28.3311L17.2976 28.1684C17.1413 28.0122 16.8881 28.0122 16.7319 28.1684L15.4732 29.4271C15.317 29.5833 15.317 29.8365 15.4732 29.9928Z" fill="#015CF3"/>
<path d="M33.5502 33.3759L34.5048 32.4213C35.0515 31.8746 35.0515 30.9882 34.5048 30.4414L33.4371 29.3737C32.8903 28.827 32.0039 28.827 31.4572 29.3737L30.5026 30.3283C29.9558 30.875 29.9558 31.7615 30.5026 32.3082L31.5703 33.3759C32.117 33.9227 33.0035 33.9227 33.5502 33.3759Z" fill="#015CF3"/>
<path d="M31.1857 30.2031L31.3484 30.0405C31.5046 29.8843 31.5046 29.631 31.3484 29.4748L30.0897 28.2161C29.9335 28.0599 29.6803 28.0599 29.524 28.2161L29.3614 28.3788C29.2052 28.535 29.2052 28.7882 29.3614 28.9445L30.6201 30.2031C30.7763 30.3593 31.0295 30.3593 31.1857 30.2031Z" fill="#015CF3"/>
<path d="M13.2088 11.3284L12.2542 12.283C11.7075 12.8297 11.7075 13.7162 12.2542 14.2629L13.322 15.3306C13.8687 15.8774 14.7551 15.8774 15.3019 15.3306L16.2565 14.376C16.8032 13.8293 16.8032 12.9429 16.2565 12.3961L15.1887 11.3284C14.642 10.7817 13.7556 10.7817 13.2088 11.3284Z" fill="#015CF3"/>
<path d="M15.5728 14.5137L15.4102 14.6763C15.254 14.8325 15.254 15.0858 15.4102 15.242L16.6688 16.5007C16.825 16.6569 17.0783 16.6569 17.2345 16.5007L17.3971 16.338C17.5533 16.1818 17.5533 15.9286 17.3971 15.7723L16.1385 14.5137C15.9823 14.3575 15.729 14.3575 15.5728 14.5137Z" fill="#015CF3"/>
<path d="M23.2899 19.09H22.4399V21.78H23.8799C24.5599 21.75 25.0799 21.16 25.0499 20.46C25.0799 19.72 24.5499 19.12 23.8699 19.09H23.2899Z" fill="#015CF3"/>
<path d="M25.11 22.86H23.91H22.45V25.55H23.3H25.14C25.79 25.52 26.32 24.93 26.29 24.23C26.32 23.49 25.79 22.89 25.11 22.86Z" fill="#015CF3"/>
<path d="M23.44 14.66C19.17 14.66 15.7 18.12 15.7 22.4C15.7 26.68 19.16 30.14 23.44 30.14C27.72 30.14 31.18 26.68 31.18 22.4C31.18 18.12 27.72 14.66 23.44 14.66ZM25.16 26.63H23.84V27.35C23.84 27.65 23.6 27.89 23.3 27.89C23 27.89 22.76 27.65 22.76 27.35V26.63H21.91H21.05C20.75 26.63 20.51 26.39 20.51 26.09C20.51 25.79 20.75 25.55 21.05 25.55H21.37V19.09H21.05C20.75 19.09 20.51 18.85 20.51 18.55C20.51 18.25 20.75 18.01 21.05 18.01H21.91H22.76V17.29C22.76 16.99 23 16.75 23.3 16.75C23.6 16.75 23.84 16.99 23.84 17.29V18.01H23.91C25.2 18.07 26.19 19.16 26.14 20.45C26.16 20.97 26 21.47 25.71 21.87C26.71 22.17 27.41 23.12 27.37 24.22C27.42 25.47 26.43 26.56 25.17 26.62L25.16 26.63Z" fill="#015CF3"/>
</g>
<path d="M55.411 12.786H53.89C53.591 11.772 52.746 11.213 51.693 11.213C50.081 11.213 49.119 12.5 49.119 14.593C49.119 16.686 50.068 17.947 51.693 17.947C52.707 17.947 53.526 17.427 53.864 16.426H55.398C54.917 18.181 53.435 19.169 51.693 19.169C49.171 19.169 47.637 17.44 47.637 14.593C47.637 11.759 49.184 9.991 51.732 9.991C53.487 9.991 54.995 10.953 55.411 12.786ZM56.7571 19V12.071H58.1481V13.098C58.6031 12.266 59.3181 11.889 60.1241 11.889C60.3971 11.889 60.6571 11.954 60.7871 12.071V13.293C60.5791 13.228 60.3321 13.202 60.0461 13.202C58.7201 13.202 58.1481 14.008 58.1481 15.217V19H56.7571ZM62.2277 22.029C61.9287 22.029 61.6167 21.951 61.4607 21.899V20.833H61.8377C62.6307 20.833 62.9297 20.677 63.5277 19.234L63.7357 18.753L60.9537 12.071H62.4487L64.1647 16.387L64.4637 17.336L64.7627 16.387L66.4267 12.071H67.8437L64.6977 19.806C63.9957 21.535 63.4627 22.029 62.2277 22.029ZM70.1452 21.86H68.7542V12.071H70.1452V12.903C70.5872 12.253 71.2372 11.889 72.0302 11.889C73.8632 11.889 74.9682 13.254 74.9682 15.516C74.9682 17.869 73.8372 19.169 72.0302 19.169C71.2372 19.169 70.5872 18.844 70.1452 18.207V21.86ZM71.8612 13.059C70.7432 13.059 70.1452 13.93 70.1452 15.516C70.1452 17.102 70.7692 17.999 71.8612 17.999C72.9532 17.999 73.5512 17.115 73.5512 15.516C73.5512 13.943 72.9272 13.059 71.8612 13.059ZM76.5026 16.933V13.15H75.5666V12.071H76.5026V10.472H77.8936V12.071H79.3886V13.15H77.8936V16.855C77.8936 17.648 78.1146 18.025 79.0896 18.025H79.3626V19.039C79.2066 19.117 78.8816 19.169 78.4916 19.169C77.1396 19.169 76.5026 18.428 76.5026 16.933ZM83.3329 19.169C81.3179 19.169 80.0959 17.804 80.0959 15.542C80.0959 13.189 81.3569 11.889 83.3329 11.889C85.3479 11.889 86.5699 13.28 86.5699 15.542C86.5699 17.882 85.3089 19.169 83.3329 19.169ZM83.3329 17.999C84.5159 17.999 85.1529 17.141 85.1529 15.542C85.1529 13.956 84.5029 13.059 83.3329 13.059C82.1629 13.059 81.5129 13.93 81.5129 15.542C81.5129 17.115 82.1629 17.999 83.3329 17.999ZM96.4393 19L95.6853 17.011H91.6553L90.9013 19H89.4453L92.8513 10.16H94.5543L97.9603 19H96.4393ZM93.4103 12.422L92.0973 15.867H95.2433L93.9303 12.422L93.6703 11.564L93.4103 12.422ZM99.9471 13.891C99.9471 15.659 104.38 14.177 104.38 16.998C104.38 18.311 103.197 19.169 101.52 19.169C99.8431 19.169 98.6601 18.389 98.4001 16.738H99.7911C99.9341 17.609 100.584 18.09 101.559 18.09C102.495 18.09 102.989 17.674 102.989 17.089C102.989 15.36 98.6211 16.816 98.6211 13.969C98.6211 12.89 99.4661 11.889 101.221 11.889C102.768 11.889 103.912 12.604 104.133 14.333H102.742C102.586 13.358 102.04 12.994 101.156 12.994C100.389 12.994 99.9471 13.371 99.9471 13.891ZM106.752 13.891C106.752 15.659 111.185 14.177 111.185 16.998C111.185 18.311 110.002 19.169 108.325 19.169C106.648 19.169 105.465 18.389 105.205 16.738H106.596C106.739 17.609 107.389 18.09 108.364 18.09C109.3 18.09 109.794 17.674 109.794 17.089C109.794 15.36 105.426 16.816 105.426 13.969C105.426 12.89 106.271 11.889 108.026 11.889C109.573 11.889 110.717 12.604 110.938 14.333H109.547C109.391 13.358 108.845 12.994 107.961 12.994C107.194 12.994 106.752 13.371 106.752 13.891ZM118.6 16.738C118.223 18.35 117.027 19.169 115.402 19.169C113.361 19.169 112.113 17.804 112.113 15.542C112.113 13.189 113.361 11.889 115.337 11.889C117.339 11.889 118.548 13.241 118.548 15.464V15.802H113.53C113.608 17.219 114.271 18.012 115.402 18.012C116.286 18.012 116.91 17.596 117.144 16.738H118.6ZM115.337 13.046C114.336 13.046 113.738 13.683 113.569 14.853H117.105C116.936 13.683 116.325 13.046 115.337 13.046ZM120.124 16.933V13.15H119.188V12.071H120.124V10.472H121.515V12.071H123.01V13.15H121.515V16.855C121.515 17.648 121.736 18.025 122.711 18.025H122.984V19.039C122.828 19.117 122.503 19.169 122.113 19.169C120.761 19.169 120.124 18.428 120.124 16.933ZM55.827 36L54.046 29.89L53.838 29.11L53.643 29.89L51.862 36H50.185L47.429 27.16H48.976L50.874 33.751L51.082 34.518L51.264 33.751L53.162 27.16H54.605L56.503 33.751L56.698 34.518L56.88 33.751L58.765 27.16H60.247L57.491 36H55.827ZM67.1083 33.738C66.7313 35.35 65.5353 36.169 63.9103 36.169C61.8693 36.169 60.6213 34.804 60.6213 32.542C60.6213 30.189 61.8693 28.889 63.8453 28.889C65.8473 28.889 67.0563 30.241 67.0563 32.464V32.802H62.0383C62.1163 34.219 62.7793 35.012 63.9103 35.012C64.7943 35.012 65.4183 34.596 65.6523 33.738H67.1083ZM63.8453 30.046C62.8443 30.046 62.2463 30.683 62.0773 31.853H65.6133C65.4443 30.683 64.8333 30.046 63.8453 30.046ZM69.7625 31.333H68.3715C68.5925 29.799 69.6455 28.889 71.3745 28.889C73.2595 28.889 74.1955 29.994 74.1955 31.606V34.31C74.1955 35.142 74.2735 35.623 74.4295 36H72.9735C72.8695 35.74 72.8305 35.376 72.8175 34.986C72.2325 35.805 71.3355 36.169 70.5035 36.169C69.0995 36.169 68.1375 35.506 68.1375 34.18C68.1375 33.231 68.6575 32.529 69.6975 32.178C70.6205 31.866 71.5565 31.788 72.8045 31.775V31.619C72.8045 30.605 72.3365 30.059 71.2705 30.059C70.3735 30.059 69.8925 30.553 69.7625 31.333ZM69.5415 34.128C69.5415 34.713 70.0225 35.077 70.7635 35.077C71.9205 35.077 72.8045 34.154 72.8045 33.036V32.724C70.1395 32.75 69.5415 33.335 69.5415 34.128ZM75.9397 36V26.64H77.3307V36H75.9397ZM79.194 33.933V30.15H78.258V29.071H79.194V27.472H80.585V29.071H82.08V30.15H80.585V33.855C80.585 34.648 80.806 35.025 81.781 35.025H82.054V36.039C81.898 36.117 81.573 36.169 81.183 36.169C79.831 36.169 79.194 35.428 79.194 33.933ZM83.1253 36V26.64H84.5163V29.994C84.9843 29.253 85.7123 28.889 86.6093 28.889C88.0523 28.889 88.9493 29.734 88.9493 31.372V36H87.5713V31.658C87.5713 30.657 87.1293 30.046 86.1803 30.046C85.1403 30.046 84.5163 30.969 84.5163 31.931V36H83.1253ZM93.2967 36V27.16H95.2597L97.7557 33.283L98.0547 34.219L98.3537 33.283L100.824 27.16H102.735V36H101.279L101.318 28.837L100.681 30.735L98.5357 36H97.4957L95.3377 30.722L94.7137 28.876L94.7527 36H93.2967ZM105.843 31.333H104.452C104.673 29.799 105.726 28.889 107.455 28.889C109.34 28.889 110.276 29.994 110.276 31.606V34.31C110.276 35.142 110.354 35.623 110.51 36H109.054C108.95 35.74 108.911 35.376 108.898 34.986C108.313 35.805 107.416 36.169 106.584 36.169C105.18 36.169 104.218 35.506 104.218 34.18C104.218 33.231 104.738 32.529 105.778 32.178C106.701 31.866 107.637 31.788 108.885 31.775V31.619C108.885 30.605 108.417 30.059 107.351 30.059C106.454 30.059 105.973 30.553 105.843 31.333ZM105.622 34.128C105.622 34.713 106.103 35.077 106.844 35.077C108.001 35.077 108.885 34.154 108.885 33.036V32.724C106.22 32.75 105.622 33.335 105.622 34.128ZM112.02 36V29.071H113.411V29.994C113.879 29.253 114.607 28.889 115.504 28.889C116.947 28.889 117.844 29.734 117.844 31.372V36H116.466V31.658C116.466 30.657 116.024 30.046 115.075 30.046C114.035 30.046 113.411 30.969 113.411 31.931V36H112.02ZM120.848 31.333H119.457C119.678 29.799 120.731 28.889 122.46 28.889C124.345 28.889 125.281 29.994 125.281 31.606V34.31C125.281 35.142 125.359 35.623 125.515 36H124.059C123.955 35.74 123.916 35.376 123.903 34.986C123.318 35.805 122.421 36.169 121.589 36.169C120.185 36.169 119.223 35.506 119.223 34.18C119.223 33.231 119.743 32.529 120.783 32.178C121.706 31.866 122.642 31.788 123.89 31.775V31.619C123.89 30.605 123.422 30.059 122.356 30.059C121.459 30.059 120.978 30.553 120.848 31.333ZM120.627 34.128C120.627 34.713 121.108 35.077 121.849 35.077C123.006 35.077 123.89 34.154 123.89 33.036V32.724C121.225 32.75 120.627 33.335 120.627 34.128ZM129.522 36.039C127.754 36.039 126.688 34.687 126.688 32.477C126.688 30.163 127.78 28.889 129.522 28.889C130.406 28.889 131.069 29.201 131.511 29.799V29.071H132.902V36.221C132.902 38.119 131.641 39.042 129.977 39.042C128.313 39.042 127.117 38.262 126.87 36.65H128.261C128.391 37.482 129.054 37.924 129.964 37.924C130.887 37.924 131.511 37.443 131.511 36.247V35.077C131.043 35.714 130.367 36.039 129.522 36.039ZM129.808 34.869C130.913 34.869 131.511 34.024 131.511 32.464C131.511 30.943 130.887 30.059 129.808 30.059C128.703 30.059 128.105 30.904 128.105 32.477C128.105 33.998 128.716 34.869 129.808 34.869ZM140.741 33.738C140.364 35.35 139.168 36.169 137.543 36.169C135.502 36.169 134.254 34.804 134.254 32.542C134.254 30.189 135.502 28.889 137.478 28.889C139.48 28.889 140.689 30.241 140.689 32.464V32.802H135.671C135.749 34.219 136.412 35.012 137.543 35.012C138.427 35.012 139.051 34.596 139.285 33.738H140.741ZM137.478 30.046C136.477 30.046 135.879 30.683 135.71 31.853H139.246C139.077 30.683 138.466 30.046 137.478 30.046ZM142.082 36V29.071H143.473V29.955C143.915 29.24 144.604 28.889 145.423 28.889C146.346 28.889 147.035 29.292 147.373 30.085C147.828 29.292 148.582 28.889 149.492 28.889C150.857 28.889 151.741 29.734 151.741 31.372V36H150.35V31.658C150.35 30.657 149.973 30.046 149.115 30.046C148.179 30.046 147.607 30.969 147.607 31.931V36H146.216V31.658C146.216 30.657 145.826 30.046 144.981 30.046C144.045 30.046 143.473 30.969 143.473 31.931V36H142.082ZM159.581 33.738C159.204 35.35 158.008 36.169 156.383 36.169C154.342 36.169 153.094 34.804 153.094 32.542C153.094 30.189 154.342 28.889 156.318 28.889C158.32 28.889 159.529 30.241 159.529 32.464V32.802H154.511C154.589 34.219 155.252 35.012 156.383 35.012C157.267 35.012 157.891 34.596 158.125 33.738H159.581ZM156.318 30.046C155.317 30.046 154.719 30.683 154.55 31.853H158.086C157.917 30.683 157.306 30.046 156.318 30.046ZM160.922 36V29.071H162.313V29.994C162.781 29.253 163.509 28.889 164.406 28.889C165.849 28.889 166.746 29.734 166.746 31.372V36H165.368V31.658C165.368 30.657 164.926 30.046 163.977 30.046C162.937 30.046 162.313 30.969 162.313 31.931V36H160.922ZM168.62 33.933V30.15H167.684V29.071H168.62V27.472H170.011V29.071H171.506V30.15H170.011V33.855C170.011 34.648 170.232 35.025 171.207 35.025H171.48V36.039C171.324 36.117 170.999 36.169 170.609 36.169C169.257 36.169 168.62 35.428 168.62 33.933Z" fill="#015CF3"/>
<defs>
<clipPath id="clip0_29_11">
<rect width="30.71" height="30.46" fill="white" transform="translate(8 7)"/>
</clipPath>
</defs>
</svg>
