<svg width="32" height="32" viewBox="0 0 32 32" fill="none" xmlns="http://www.w3.org/2000/svg">
<g clip-path="url(#clip0_30_35)">
<path d="M17.95 1H14.78C14.3051 1 13.92 1.38504 13.92 1.86V4.99C13.92 5.46496 14.3051 5.85 14.78 5.85H17.95C18.425 5.85 18.81 5.46496 18.81 4.99V1.86C18.81 1.38504 18.425 1 17.95 1Z" fill="#015CF3"/>
<path d="M27.7501 5.84921L26.7955 4.89461C26.2488 4.34788 25.3623 4.34788 24.8156 4.89461L23.7479 5.96234C23.2011 6.50908 23.2011 7.39551 23.7479 7.94224L24.7025 8.89684C25.2492 9.44357 26.1356 9.44357 26.6824 8.89684L27.7501 7.82911C28.2968 7.28237 28.2968 6.39594 27.7501 5.84921Z" fill="#015CF3"/>
<path d="M16.43 5.04999H16.2C15.9791 5.04999 15.8 5.22907 15.8 5.44999V7.22999C15.8 7.4509 15.9791 7.62999 16.2 7.62999H16.43C16.651 7.62999 16.83 7.4509 16.83 7.22999V5.44999C16.83 5.22907 16.651 5.04999 16.43 5.04999Z" fill="#015CF3"/>
<path d="M1 14.61L1 17.78C1 18.255 1.38503 18.64 1.86 18.64H5.01C5.48497 18.64 5.87 18.255 5.87 17.78V14.61C5.87 14.135 5.48497 13.75 5.01 13.75H1.86C1.38503 13.75 1 14.135 1 14.61Z" fill="#015CF3"/>
<path d="M5.14001 16.12V16.35C5.14001 16.5709 5.3191 16.75 5.54002 16.75H7.32002C7.54093 16.75 7.72002 16.5709 7.72002 16.35V16.12C7.72002 15.8991 7.54093 15.72 7.32002 15.72H5.54002C5.3191 15.72 5.14001 15.8991 5.14001 16.12Z" fill="#015CF3"/>
<path d="M31.7 17.59V14.42C31.7 13.945 31.3149 13.56 30.84 13.56H27.69C27.215 13.56 26.83 13.945 26.83 14.42V17.59C26.83 18.065 27.215 18.45 27.69 18.45H30.84C31.3149 18.45 31.7 18.065 31.7 17.59Z" fill="#015CF3"/>
<path d="M27.5601 16.07V15.84C27.5601 15.6191 27.381 15.44 27.1601 15.44H25.3801C25.1591 15.44 24.9801 15.6191 24.9801 15.84V16.07C24.9801 16.2909 25.1591 16.47 25.3801 16.47H27.1601C27.381 16.47 27.5601 16.2909 27.5601 16.07Z" fill="#015CF3"/>
<path d="M14.75 31.46H17.92C18.395 31.46 18.78 31.075 18.78 30.6V27.45C18.78 26.9751 18.395 26.59 17.92 26.59H14.75C14.2751 26.59 13.89 26.9751 13.89 27.45V30.6C13.89 31.075 14.2751 31.46 14.75 31.46Z" fill="#015CF3"/>
<path d="M16.26 27.31H16.49C16.7109 27.31 16.89 27.1309 16.89 26.91V25.13C16.89 24.9091 16.7109 24.73 16.49 24.73H16.26C16.0391 24.73 15.86 24.9091 15.86 25.13V26.91C15.86 27.1309 16.0391 27.31 16.26 27.31Z" fill="#015CF3"/>
<path d="M24.5643 8.22429L24.4016 8.06165C24.2454 7.90544 23.9921 7.90544 23.8359 8.06165L22.5773 9.3203C22.4211 9.47651 22.4211 9.72978 22.5773 9.88599L22.7399 10.0486C22.8961 10.2048 23.1494 10.2048 23.3056 10.0486L24.5643 8.78997C24.7205 8.63376 24.7205 8.3805 24.5643 8.22429Z" fill="#015CF3"/>
<path d="M5.29093 26.3561L6.24552 27.3107C6.79226 27.8574 7.67869 27.8574 8.22542 27.3107L9.29315 26.243C9.83989 25.6962 9.83989 24.8098 9.29315 24.2631L8.33856 23.3085C7.79183 22.7618 6.9054 22.7618 6.35866 23.3085L5.29093 24.3762C4.7442 24.923 4.7442 25.8094 5.29093 26.3561Z" fill="#015CF3"/>
<path d="M8.47322 23.9928L8.63586 24.1554C8.79207 24.3116 9.04533 24.3116 9.20154 24.1554L10.4602 22.8967C10.6164 22.7405 10.6164 22.4873 10.4602 22.3311L10.2976 22.1684C10.1413 22.0122 9.88808 22.0122 9.73187 22.1684L8.47322 23.4271C8.31701 23.5833 8.31701 23.8365 8.47322 23.9928Z" fill="#015CF3"/>
<path d="M26.5502 27.3759L27.5048 26.4213C28.0515 25.8746 28.0515 24.9882 27.5048 24.4414L26.4371 23.3737C25.8903 22.827 25.0039 22.827 24.4572 23.3737L23.5026 24.3283C22.9558 24.875 22.9558 25.7615 23.5026 26.3082L24.5703 27.3759C25.117 27.9227 26.0035 27.9227 26.5502 27.3759Z" fill="#015CF3"/>
<path d="M24.1857 24.2031L24.3484 24.0405C24.5046 23.8843 24.5046 23.631 24.3484 23.4748L23.0897 22.2161C22.9335 22.0599 22.6803 22.0599 22.524 22.2161L22.3614 22.3788C22.2052 22.535 22.2052 22.7882 22.3614 22.9445L23.6201 24.2031C23.7763 24.3593 24.0295 24.3593 24.1857 24.2031Z" fill="#015CF3"/>
<path d="M6.20883 5.32841L5.25423 6.283C4.7075 6.82973 4.7075 7.71616 5.25423 8.2629L6.32196 9.33063C6.8687 9.87736 7.75513 9.87736 8.30186 9.33063L9.25646 8.37604C9.80319 7.8293 9.80319 6.94287 9.25646 6.39614L8.18872 5.32841C7.64199 4.78167 6.75556 4.78167 6.20883 5.32841Z" fill="#015CF3"/>
<path d="M8.5728 8.51369L8.41016 8.67632C8.25395 8.83253 8.25395 9.0858 8.41016 9.24201L9.66881 10.5007C9.82502 10.6569 10.0783 10.6569 10.2345 10.5007L10.3971 10.338C10.5533 10.1818 10.5533 9.92855 10.3971 9.77234L9.13848 8.51369C8.98227 8.35748 8.72901 8.35748 8.5728 8.51369Z" fill="#015CF3"/>
<path d="M16.2899 13.09H15.4399V15.78H16.8799C17.5599 15.75 18.0799 15.16 18.0499 14.46C18.0799 13.72 17.5499 13.12 16.8699 13.09H16.2899Z" fill="#015CF3"/>
<path d="M18.11 16.86H16.91H15.45V19.55H16.3H18.14C18.79 19.52 19.32 18.93 19.29 18.23C19.32 17.49 18.79 16.89 18.11 16.86Z" fill="#015CF3"/>
<path d="M16.44 8.65997C12.17 8.65997 8.69995 12.12 8.69995 16.4C8.69995 20.68 12.16 24.14 16.44 24.14C20.72 24.14 24.18 20.68 24.18 16.4C24.18 12.12 20.72 8.65997 16.44 8.65997ZM18.16 20.63H16.84V21.35C16.84 21.65 16.6 21.89 16.3 21.89C16 21.89 15.76 21.65 15.76 21.35V20.63H14.91H14.05C13.75 20.63 13.51 20.39 13.51 20.09C13.51 19.79 13.75 19.55 14.05 19.55H14.37V13.09H14.05C13.75 13.09 13.51 12.85 13.51 12.55C13.51 12.25 13.75 12.01 14.05 12.01H14.91H15.76V11.29C15.76 10.99 16 10.75 16.3 10.75C16.6 10.75 16.84 10.99 16.84 11.29V12.01H16.91C18.2 12.07 19.19 13.16 19.14 14.45C19.16 14.97 19 15.47 18.71 15.87C19.71 16.17 20.41 17.12 20.37 18.22C20.42 19.47 19.43 20.56 18.17 20.62L18.16 20.63Z" fill="#015CF3"/>
</g>
</svg>
